<?xml version="1.0" standalone="no"?>
<svg xmlns:xlink="http://www.w3.org/1999/xlink" id="wave" style="transform:rotate(0deg); transition: 0.3s" viewBox="0 0 1440 490" version="1.1" xmlns="http://www.w3.org/2000/svg"><defs><linearGradient id="sw-gradient-0" x1="0" x2="0" y1="1" y2="0"><stop stop-color="rgba(0, 10.028, 255, 1)" offset="0%"/><stop stop-color="rgba(58, 65, 236, 1)" offset="100%"/></linearGradient></defs><path style="transform:translate(0, 0px); opacity:1" fill="url(#sw-gradient-0)" d="M0,0L80,57.2C160,114,320,229,480,228.7C640,229,800,114,960,106.2C1120,98,1280,196,1440,212.3C1600,229,1760,163,1920,130.7C2080,98,2240,98,2400,81.7C2560,65,2720,33,2880,32.7C3040,33,3200,65,3360,81.7C3520,98,3680,98,3840,122.5C4000,147,4160,196,4320,187.8C4480,180,4640,114,4800,73.5C4960,33,5120,16,5280,8.2C5440,0,5600,0,5760,73.5C5920,147,6080,294,6240,302.2C6400,310,6560,180,6720,106.2C6880,33,7040,16,7200,40.8C7360,65,7520,131,7680,204.2C7840,278,8000,359,8160,343C8320,327,8480,212,8640,187.8C8800,163,8960,229,9120,220.5C9280,212,9440,131,9600,89.8C9760,49,9920,49,10080,89.8C10240,131,10400,212,10560,220.5C10720,229,10880,163,11040,171.5C11200,180,11360,261,11440,302.2L11520,343L11520,490L11440,490C11360,490,11200,490,11040,490C10880,490,10720,490,10560,490C10400,490,10240,490,10080,490C9920,490,9760,490,9600,490C9440,490,9280,490,9120,490C8960,490,8800,490,8640,490C8480,490,8320,490,8160,490C8000,490,7840,490,7680,490C7520,490,7360,490,7200,490C7040,490,6880,490,6720,490C6560,490,6400,490,6240,490C6080,490,5920,490,5760,490C5600,490,5440,490,5280,490C5120,490,4960,490,4800,490C4640,490,4480,490,4320,490C4160,490,4000,490,3840,490C3680,490,3520,490,3360,490C3200,490,3040,490,2880,490C2720,490,2560,490,2400,490C2240,490,2080,490,1920,490C1760,490,1600,490,1440,490C1280,490,1120,490,960,490C800,490,640,490,480,490C320,490,160,490,80,490L0,490Z"/><defs><linearGradient id="sw-gradient-1" x1="0" x2="0" y1="1" y2="0"><stop stop-color="rgba(97.679, 155.577, 241.766, 1)" offset="0%"/><stop stop-color="rgba(34, 103, 244, 1)" offset="100%"/></linearGradient></defs><path style="transform:translate(0, 50px); opacity:0.9" fill="url(#sw-gradient-1)" d="M0,0L80,40.8C160,82,320,163,480,163.3C640,163,800,82,960,98C1120,114,1280,229,1440,253.2C1600,278,1760,212,1920,204.2C2080,196,2240,245,2400,253.2C2560,261,2720,229,2880,187.8C3040,147,3200,98,3360,89.8C3520,82,3680,114,3840,122.5C4000,131,4160,114,4320,122.5C4480,131,4640,163,4800,204.2C4960,245,5120,294,5280,326.7C5440,359,5600,376,5760,375.7C5920,376,6080,359,6240,351.2C6400,343,6560,343,6720,310.3C6880,278,7040,212,7200,163.3C7360,114,7520,82,7680,114.3C7840,147,8000,245,8160,302.2C8320,359,8480,376,8640,383.8C8800,392,8960,392,9120,326.7C9280,261,9440,131,9600,98C9760,65,9920,131,10080,147C10240,163,10400,131,10560,106.2C10720,82,10880,65,11040,65.3C11200,65,11360,82,11440,89.8L11520,98L11520,490L11440,490C11360,490,11200,490,11040,490C10880,490,10720,490,10560,490C10400,490,10240,490,10080,490C9920,490,9760,490,9600,490C9440,490,9280,490,9120,490C8960,490,8800,490,8640,490C8480,490,8320,490,8160,490C8000,490,7840,490,7680,490C7520,490,7360,490,7200,490C7040,490,6880,490,6720,490C6560,490,6400,490,6240,490C6080,490,5920,490,5760,490C5600,490,5440,490,5280,490C5120,490,4960,490,4800,490C4640,490,4480,490,4320,490C4160,490,4000,490,3840,490C3680,490,3520,490,3360,490C3200,490,3040,490,2880,490C2720,490,2560,490,2400,490C2240,490,2080,490,1920,490C1760,490,1600,490,1440,490C1280,490,1120,490,960,490C800,490,640,490,480,490C320,490,160,490,80,490L0,490Z"/></svg>